<?xml version="1.0" encoding="UTF-8" standalone="no"?>
<!DOCTYPE svg PUBLIC "-//W3C//DTD SVG 1.1//EN"
 "http://www.w3.org/Graphics/SVG/1.1/DTD/svg11.dtd">
<!-- Generated by graphviz version 7.1.0 (20230122.1345)
 -->
<!-- Pages: 1 -->
<svg width="997pt" height="735pt"
 viewBox="0.00 0.00 997.14 735.07" xmlns="http://www.w3.org/2000/svg" xmlns:xlink="http://www.w3.org/1999/xlink">
<g id="graph0" class="graph" transform="scale(1 1) rotate(0) translate(4 731.07)">
<polygon fill="white" stroke="none" points="-4,4 -4,-731.07 993.14,-731.07 993.14,4 -4,4"/>
<!-- N11015 -->
<g id="node1" class="node">
<title>N11015</title>
<polygon fill="#de707f" stroke="#de707f" stroke-width="6" points="397.14,-166.9 194.14,-166.9 194.14,-128.9 397.14,-128.9 397.14,-166.9"/>
<text text-anchor="middle" x="295.64" y="-151.7" font-family="Times,serif" font-size="14.00">BatteryCyclerExperiment (11015)</text>
<text text-anchor="middle" x="295.64" y="-136.7" font-family="Times,serif" font-size="14.00">State: finished</text>
</g>
<!-- N11016 -->
<g id="node9" class="node">
<title>N11016</title>
<ellipse fill="#8cd499" stroke="black" stroke-width="0" cx="220.64" cy="-18" rx="77.99" ry="18"/>
<text text-anchor="middle" x="220.64" y="-14.3" font-family="Times,serif" font-size="14.00">ArrayData (11016)</text>
</g>
<!-- N11015&#45;&gt;N11016 -->
<g id="edge12" class="edge">
<title>N11015&#45;&gt;N11016</title>
<path fill="none" stroke="#000001" d="M283.09,-126.16C270.3,-104.01 250.43,-69.6 236.55,-45.56"/>
<polygon fill="#000000" stroke="#000000" points="239.61,-43.86 231.58,-36.95 233.55,-47.36 239.61,-43.86"/>
<text text-anchor="middle" x="233.82" y="-104.66" font-family="Times,serif" font-size="14.00">CREATE</text>
<text text-anchor="middle" x="233.82" y="-89.66" font-family="Times,serif" font-size="14.00">results</text>
</g>
<!-- N1 -->
<g id="node2" class="node">
<title>N1</title>
<ellipse fill="#8cd499" stroke="black" stroke-width="0" cx="133.64" cy="-428.49" rx="133.79" ry="26.74"/>
<text text-anchor="middle" x="133.64" y="-432.29" font-family="Times,serif" font-size="14.00">InstalledCode (1)</text>
<text text-anchor="middle" x="133.64" y="-417.29" font-family="Times,serif" font-size="14.00">ketchup submit &#45; tomato 0.2rc2</text>
</g>
<!-- N1&#45;&gt;N11015 -->
<g id="edge10" class="edge">
<title>N1&#45;&gt;N11015</title>
<path fill="none" stroke="#000001" stroke-dasharray="5,2" d="M148.88,-402.09C178.84,-350.2 245.27,-235.14 277.46,-179.39"/>
<polygon fill="#000000" stroke="#000000" points="280.33,-181.42 282.3,-171.01 274.27,-177.92 280.33,-181.42"/>
<text text-anchor="middle" x="171.67" y="-309.54" font-family="Times,serif" font-size="14.00">INPUT_CALC</text>
<text text-anchor="middle" x="171.67" y="-294.54" font-family="Times,serif" font-size="14.00">code</text>
</g>
<!-- N11014 -->
<g id="node8" class="node">
<title>N11014</title>
<polygon fill="#e38851" stroke="red" stroke-width="2" points="891.63,-447.49 671.63,-447.49 671.63,-409.49 891.63,-409.49 891.63,-447.49"/>
<text text-anchor="middle" x="781.63" y="-432.29" font-family="Times,serif" font-size="14.00">CyclingSequenceWorkChain (11014)</text>
<text text-anchor="middle" x="781.63" y="-417.29" font-family="Times,serif" font-size="14.00">State: finished</text>
</g>
<!-- N1&#45;&gt;N11014 -->
<g id="edge9" class="edge">
<title>N1&#45;&gt;N11014</title>
<path fill="none" stroke="#000000" d="M267.12,-428.49C382.73,-428.49 548.52,-428.49 660.39,-428.49"/>
<polygon fill="#000000" stroke="#000000" points="660.21,-431.99 670.21,-428.49 660.21,-424.99 660.21,-431.99"/>
<text text-anchor="middle" x="419.26" y="-417.29" font-family="Times,serif" font-size="14.00">INPUT_WORK</text>
<text text-anchor="middle" x="419.26" y="-402.29" font-family="Times,serif" font-size="14.00">tomato_code</text>
</g>
<!-- N11009 -->
<g id="node3" class="node">
<title>N11009</title>
<ellipse fill="#8cd499" stroke="black" stroke-width="0" cx="619.64" cy="-147.9" rx="110.48" ry="18"/>
<text text-anchor="middle" x="619.64" y="-144.2" font-family="Times,serif" font-size="14.00">BatterySampleData (11009)</text>
</g>
<!-- N11009&#45;&gt;N11015 -->
<g id="edge11" class="edge">
<title>N11009&#45;&gt;N11015</title>
<path fill="none" stroke="#000001" stroke-dasharray="5,2" d="M509.49,-147.9C477.82,-147.9 443.19,-147.9 411.2,-147.9"/>
<polygon fill="#000000" stroke="#000000" points="411.52,-144.4 401.52,-147.9 411.52,-151.4 411.52,-144.4"/>
<text text-anchor="middle" x="460.35" y="-136.7" font-family="Times,serif" font-size="14.00">INPUT_CALC</text>
<text text-anchor="middle" x="460.35" y="-121.7" font-family="Times,serif" font-size="14.00">battery_sample</text>
</g>
<!-- N11009&#45;&gt;N11014 -->
<g id="edge8" class="edge">
<title>N11009&#45;&gt;N11014</title>
<path fill="none" stroke="#000000" d="M629.77,-165.45C656.96,-212.55 731.73,-342.06 765.14,-399.91"/>
<polygon fill="#000000" stroke="#000000" points="762.08,-401.63 770.11,-408.54 768.15,-398.12 762.08,-401.63"/>
<text text-anchor="middle" x="652.95" y="-301.48" font-family="Times,serif" font-size="14.00">INPUT_WORK</text>
<text text-anchor="middle" x="652.95" y="-286.48" font-family="Times,serif" font-size="14.00">battery_sample</text>
</g>
<!-- N11010 -->
<g id="node4" class="node">
<title>N11010</title>
<ellipse fill="#8cd499" stroke="black" stroke-width="0" cx="913.33" cy="-321.32" rx="54.69" ry="18"/>
<text text-anchor="middle" x="913.33" y="-317.62" font-family="Times,serif" font-size="14.00">List (11010)</text>
</g>
<!-- N11010&#45;&gt;N11014 -->
<g id="edge5" class="edge">
<title>N11010&#45;&gt;N11014</title>
<path fill="none" stroke="#000000" d="M893.04,-337.83C871.83,-355.09 838.26,-382.4 813.51,-402.54"/>
<polygon fill="#000000" stroke="#000000" points="811.55,-399.63 806,-408.65 815.97,-405.06 811.55,-399.63"/>
<text text-anchor="middle" x="808.77" y="-388.99" font-family="Times,serif" font-size="14.00">INPUT_WORK</text>
<text text-anchor="middle" x="808.77" y="-373.99" font-family="Times,serif" font-size="14.00">protocol_order</text>
</g>
<!-- N11011 -->
<g id="node5" class="node">
<title>N11011</title>
<ellipse fill="#8cd499" stroke="black" stroke-width="0" cx="295.64" cy="-709.07" rx="105.88" ry="18"/>
<text text-anchor="middle" x="295.64" y="-705.37" font-family="Times,serif" font-size="14.00">CyclingSpecsData (11011)</text>
</g>
<!-- N11011&#45;&gt;N11015 -->
<g id="edge2" class="edge">
<title>N11011&#45;&gt;N11015</title>
<path fill="none" stroke="#000001" stroke-dasharray="5,2" d="M295.64,-691.35C295.64,-611.78 295.64,-286.81 295.64,-181.21"/>
<polygon fill="#000000" stroke="#000000" points="299.14,-181.25 295.64,-171.25 292.14,-181.25 299.14,-181.25"/>
<text text-anchor="middle" x="337.14" y="-455.08" font-family="Times,serif" font-size="14.00">INPUT_CALC</text>
<text text-anchor="middle" x="337.14" y="-440.08" font-family="Times,serif" font-size="14.00">protocol</text>
</g>
<!-- N11011&#45;&gt;N11014 -->
<g id="edge4" class="edge">
<title>N11011&#45;&gt;N11014</title>
<path fill="none" stroke="#000000" d="M325.31,-691.94C408.21,-644.08 642.52,-508.8 739.16,-453.01"/>
<polygon fill="#000000" stroke="#000000" points="740.66,-456.18 747.58,-448.15 737.16,-450.12 740.66,-456.18"/>
<text text-anchor="middle" x="480.23" y="-591.28" font-family="Times,serif" font-size="14.00">INPUT_WORK</text>
<text text-anchor="middle" x="480.23" y="-576.28" font-family="Times,serif" font-size="14.00">protocols__cycling</text>
</g>
<!-- N11012 -->
<g id="node6" class="node">
<title>N11012</title>
<ellipse fill="#8cd499" stroke="black" stroke-width="0" cx="619.64" cy="-709.07" rx="113.18" ry="18"/>
<text text-anchor="middle" x="619.64" y="-705.37" font-family="Times,serif" font-size="14.00">TomatoSettingsData (11012)</text>
</g>
<!-- N11012&#45;&gt;N11015 -->
<g id="edge3" class="edge">
<title>N11012&#45;&gt;N11015</title>
<path fill="none" stroke="#000001" stroke-dasharray="5,2" d="M609.4,-691.35C563.23,-611.38 373.93,-283.51 313.96,-179.62"/>
<polygon fill="#000000" stroke="#000000" points="317.03,-177.95 309,-171.04 310.97,-181.45 317.03,-177.95"/>
<text text-anchor="middle" x="505.18" y="-454.29" font-family="Times,serif" font-size="14.00">INPUT_CALC</text>
<text text-anchor="middle" x="505.18" y="-439.29" font-family="Times,serif" font-size="14.00">control_settings</text>
</g>
<!-- N11012&#45;&gt;N11014 -->
<g id="edge7" class="edge">
<title>N11012&#45;&gt;N11014</title>
<path fill="none" stroke="#000000" d="M629.77,-691.52C656.96,-644.42 731.73,-514.92 765.14,-457.06"/>
<polygon fill="#000000" stroke="#000000" points="768.15,-458.85 770.11,-448.44 762.08,-455.35 768.15,-458.85"/>
<text text-anchor="middle" x="627.45" y="-593.09" font-family="Times,serif" font-size="14.00">INPUT_WORK</text>
<text text-anchor="middle" x="627.45" y="-578.09" font-family="Times,serif" font-size="14.00">control_settings__cycling</text>
</g>
<!-- N11013 -->
<g id="node7" class="node">
<title>N11013</title>
<ellipse fill="#8cd499" stroke="black" stroke-width="0" cx="917.02" cy="-518.52" rx="72.25" ry="26.74"/>
<text text-anchor="middle" x="917.02" y="-522.32" font-family="Times,serif" font-size="14.00">Str (11013)</text>
<text text-anchor="middle" x="917.02" y="-507.32" font-family="Times,serif" font-size="14.00">231026&#45;083312</text>
</g>
<!-- N11013&#45;&gt;N11014 -->
<g id="edge1" class="edge">
<title>N11013&#45;&gt;N11014</title>
<path fill="none" stroke="#000000" d="M882.15,-495.33C862.98,-482.58 839.18,-466.76 819.55,-453.7"/>
<polygon fill="#000000" stroke="#000000" points="821.53,-450.81 811.26,-448.19 817.65,-456.64 821.53,-450.81"/>
<text text-anchor="middle" x="806.35" y="-493.32" font-family="Times,serif" font-size="14.00">INPUT_WORK</text>
<text text-anchor="middle" x="806.35" y="-478.32" font-family="Times,serif" font-size="14.00">group_label</text>
</g>
<!-- N11014&#45;&gt;N11015 -->
<g id="edge6" class="edge">
<title>N11014&#45;&gt;N11015</title>
<path fill="none" stroke="#000000" stroke-dasharray="1,5" d="M748.99,-409.64C665.13,-361.22 441.81,-232.29 343.38,-175.46"/>
<polygon fill="#000000" stroke="#000000" points="345.13,-172.43 334.72,-170.46 341.63,-178.49 345.13,-172.43"/>
<text text-anchor="middle" x="506.68" y="-311.35" font-family="Times,serif" font-size="14.00">CALL_CALC</text>
<text text-anchor="middle" x="506.68" y="-296.35" font-family="Times,serif" font-size="14.00">workchain</text>
</g>
</g>
</svg>
